<?xml version="1.0" encoding="utf-8"?>
<!-- Generator: Adobe Illustrator 19.1.0, SVG Export Plug-In . SVG Version: 6.00 Build 0)  -->
<svg version="1.1" id="Layer_1" xmlns="http://www.w3.org/2000/svg" xmlns:xlink="http://www.w3.org/1999/xlink" x="0px" y="0px"
	 viewBox="0 0 283 95" style="enable-background:new 0 0 283 95;" xml:space="preserve">
<style type="text/css">
	.st0{fill:#FFFFFF;}
	.st1{fill:#FFFFFF;stroke:#FFFFFF;stroke-width:1.1275;stroke-linecap:round;stroke-linejoin:round;stroke-miterlimit:10;}
	.st2{fill:none;stroke:#FFFFFF;stroke-width:1.1275;stroke-linecap:round;stroke-linejoin:round;stroke-miterlimit:10;}
	.st3{opacity:0.4;}
</style>
<g>
	<path class="st0" d="M82.4,62.5H60.3V15.9h23.1c6.6,0,10.6,6,10.6,11.9c0,4.6-2.4,8.9-6.7,10.8c5.3,1.6,8.7,6.1,8.7,11.9
		C96,57.7,89.9,62.5,82.4,62.5z M66.2,21v15.5H81c4.1,0,7.2-3.5,7.2-7.7c0-4.4-2.9-7.8-6.8-7.8H66.2z M82.8,41.4H66.2v16h16.2
		c4.3,0,7.7-3.7,7.7-7.9C90.1,45.2,87,41.4,82.8,41.4z"/>
	<path class="st0" d="M121.4,33.3c-5.8,0.1-10.5,3.1-12.3,8.1v21.1h-5.8V28.3h5.4v7.9c2.4-4.7,6.5-8.2,10.8-8.2c0.9,0,1.4,0,1.9,0.1
		V33.3z"/>
	<path class="st0" d="M127,21.8v-7.2h5.8v7.2H127z M127,62.5V28.3h5.8v34.2H127z"/>
	<path class="st0" d="M139.7,45.4c0-9.6,7.1-17.7,16.2-17.7c5.3,0,9.9,3,12.5,7.1v-6.5h5.1v40.9c0,1.4,0.5,2,1.8,2.1v5
		c-0.9,0.1-1.9,0.2-2.8,0.2c-2.7,0-4.9-1.9-4.9-4.6V55.7c-3.1,4.9-7.5,7.4-12.7,7.4C145.9,63.1,139.7,54.8,139.7,45.4z M167.7,50.8
		V41c-0.8-4.5-6-8.3-10.6-8.3c-6.8,0-11.5,6.4-11.5,12.9c0,6.9,4.7,12.7,11.4,12.7C161.9,58.2,165.5,54.9,167.7,50.8z"/>
	<path class="st0" d="M181.5,62.5v-6.2h4.1v6.2H181.5z"/>
	<path class="st0" d="M236,62.5h-4.8V46.4c0-6-2-8.8-5.8-8.8c-3.9,0-7.3,3.1-8.6,7.6v17.3H212V46.4c0-6.1-1.9-8.8-5.7-8.8
		c-3.8,0-7.3,3-8.6,7.5v17.3h-4.8V33.8h4.4v6.2c2.3-4.2,6.2-6.7,10.9-6.7c4.8,0,7.7,2.9,8.4,7c2.5-4.6,6.3-7,10.9-7
		c6.6,0,8.7,5.2,8.7,12V62.5z"/>
	<path class="st0" d="M245.2,33.8l7.9,10.6l0.4,0.9l0.5-0.9l7.8-10.6h5.1l-10.7,14.4L267,62.5h-5.1L254,52l-0.5-0.8l-0.4,0.8
		l-7.9,10.5h-5.1l10.8-14.3l-10.7-14.4H245.2z"/>
</g>
<g>
	<polygon class="st1" points="28.5,69.5 15.9,62.2 15.9,15.2 28.5,7.9 	"/>
	<polygon class="st2" points="28.5,69.5 47.9,62.2 47.9,15.2 28.5,7.9 	"/>
	<g class="st3">
		<polygon class="st0" points="28.2,87.1 49.3,78.4 36.1,71.3 14.5,78.4 		"/>
	</g>
</g>
</svg>
